<?xml version="1.0" standalone="no"?>
        <!DOCTYPE svg PUBLIC "-//W3C//DTD SVG 1.1//EN" 
        "http://www.w3.org/Graphics/SVG/1.1/DTD/svg11.dtd"><svg id="changeColor" fill="#DC7633" xmlns="http://www.w3.org/2000/svg" xmlns:xlink="http://www.w3.org/1999/xlink" width="200" zoomAndPan="magnify" viewBox="0 0 375 374.9999" height="200" version="1.0"><defs><path id="pathAttribute" d="M 11.972656 11.972656 L 359.222656 11.972656 L 359.222656 359.222656 L 11.972656 359.222656 Z M 11.972656 11.972656 " fill="#000000"></path></defs><g><path id="pathAttribute" d="M 185.597656 359.222656 C 89.675781 359.222656 11.972656 280.984375 11.972656 185.597656 C 11.972656 90.210938 89.675781 11.972656 185.597656 11.972656 C 281.519531 11.972656 359.222656 89.675781 359.222656 185.597656 C 359.222656 281.519531 280.984375 359.222656 185.597656 359.222656 Z M 185.597656 22.691406 C 95.570312 22.691406 22.691406 95.570312 22.691406 185.597656 C 22.691406 275.625 95.570312 348.503906 185.597656 348.503906 C 275.625 348.503906 348.503906 275.625 348.503906 185.597656 C 348.503906 95.570312 275.089844 22.691406 185.597656 22.691406 Z M 185.597656 22.691406 " fill-opacity="1" fill-rule="nonzero" fill="#000000"></path></g><g id="inner-icon" transform="translate(85, 75)"> <!--?xml version="1.0" encoding="UTF-8"?--><svg width="205" height="205" viewBox="0 0 48 48" fill="none" xmlns="http://www.w3.org/2000/svg" id="IconChangeColor"><path d="M42 24V9C42 7.34315 40.6569 6 39 6H9C7.34315 6 6 7.34315 6 9V39C6 40.6569 7.34315 42 9 42H24" stroke="#000000" stroke-width="0" stroke-linecap="round" stroke-linejoin="round" id="mainIconPathAttribute" fill="#ffffff"></path><path d="M39.0508 33L39.0508 43" stroke="#000000" stroke-width="1" stroke-linecap="round" stroke-linejoin="round" id="mainIconPathAttribute" fill="#ffffff"></path><path d="M44 37.9497L34 37.9497" stroke="#000000" stroke-width="1" stroke-linecap="round" stroke-linejoin="round" id="mainIconPathAttribute" fill="#ffffff"></path><circle cx="24" cy="18" r="5" fill="none" stroke="#333" stroke-width="1" stroke-linecap="round" stroke-linejoin="round"></circle><path d="M33 31C33 26.5817 28.9706 23 24 23C19.0294 23 15 26.5817 15 31" stroke="#000000" stroke-width="1" stroke-linecap="round" stroke-linejoin="round" id="mainIconPathAttribute" fill="#ffffff"></path></svg> </g></svg>